# xmcd CD database file
#
# Track frame offsets:
#	150
#	34840
#	46390
#	61970
#	79235
#	97065
#	115690
#	139585
#	153305
#	179195
#	192990
#	206045
#	219485
#
# Disc length: 3262 seconds
#
# Revision: 0
# Processed by: cddbd v1.5.1PL2 Copyright (c) Steve Scherf et al.
# Submitted via: CDex 1.70beta2
#
DISCID=bf0cbc0d
DTITLE=Various Artist - Midnight Jazz CD4 (La Repubblica)
DYEAR=1900
DGENRE=Jazz
TTITLE0=Summer
TTITLE1=Falling in love
TTITLE2=But not for me
TTITLE3=Strormy wathere
TTITLE4=I remember Wes
TTITLE5=I fall in love toot easily
TTITLE6=Round midnight
TTITLE7=I'm fool to want
TTITLE8=You can't go home again
TTITLE9=Moonlight in Vermont
TTITLE10=Invasion of the forest
TTITLE11=Dreamsville
TTITLE12=Nuages
EXTD=
EXTT0=
EXTT1=
EXTT2=
EXTT3=
EXTT4=
EXTT5=
EXTT6=
EXTT7=
EXTT8=
EXTT9=
EXTT10=
EXTT11=
EXTT12=
PLAYORDER=
